<svg version="1.2" xmlns="http://www.w3.org/2000/svg" viewBox="0 0 1540 245" width="1540" height="245">
	<title>Ametek_Logo-svg</title>
	<style>
		.s0 { fill: #ec2227 } 
		.s1 { fill: #000000 } 
	</style>
	<g id="layer1">
		<g id="g5980">
			<path id="path5733" fill-rule="evenodd" class="s0" d="m42.7 166.7h85.8l-44.1 77.3h-84.3z"/>
			<g id="g5735">
				<path id="path5737" fill-rule="evenodd" class="s1" d="m131.7 0.1l138.1 243.4h-96.4l-89.9-157.3z"/>
			</g>
			<g id="g5755">
				<path id="path5741" fill-rule="evenodd" class="s1" d="m269.4 21.4h107.9l49.6 110.6 51-110.6h109.4v222.1h-79.7v-100.9l-46.8 101.8h-65.9l-45.4-101.8v100.9h-80.1zm342.4-0.4h201.2v59.7h-120.5v15.7h120.5v56.9h-120.5v27.3h120.5v63h-201.2zm465.3 0.4h202.1v59.3h-121v15.7h121v57.4h-121v27.3h121v62.5h-202.1zm-249.8-0.5h234.5v59.3h-77.4v162.9h-80.6v-162.9h-76.5zm474.1 0h83.9v61l54.7-61h89.9l-80.2 88.8 89.5 133.3h-101l-43.6-74.1-9.3 11.6v62.5h-83.9z"/>
			</g>
		</g>
	</g>
</svg>