<svg id="Layer_1" data-name="Layer 1" xmlns="http://www.w3.org/2000/svg" xmlns:xlink="http://www.w3.org/1999/xlink" viewBox="0 0 1500 390.96"><defs><style>.cls-1{fill:none;}.cls-2{clip-path:url(#clip-path);}.cls-3{fill:#19305a;}.cls-4{clip-path:url(#clip-path-2);}.cls-5{clip-path:url(#clip-path-3);}.cls-6{fill:url(#linear-gradient);}.cls-7{clip-path:url(#clip-path-4);}.cls-8{fill:url(#linear-gradient-2);}.cls-9{fill:#faa82f;}</style><clipPath id="clip-path"><rect class="cls-1" x="-73.58" y="-39.17" width="1521.26" height="469.3"/></clipPath><clipPath id="clip-path-2"><rect class="cls-1" x="-73.58" y="-39.17" width="1521.26" height="469.3"/></clipPath><clipPath id="clip-path-3"><polygon class="cls-1" points="52.97 75.21 94.98 117.19 239.71 117.19 239.71 261.96 281.73 303.93 281.73 75.22 281.73 75.21 52.97 75.21"/></clipPath><linearGradient id="linear-gradient" x1="-5" y1="5.82" x2="2.77" y2="5.82" gradientTransform="translate(203.25 -62.85) scale(43.37)" gradientUnits="userSpaceOnUse"><stop offset="0" stop-color="#eb4944"/><stop offset="0.39" stop-color="#ee5c3f"/><stop offset="1" stop-color="#f58235"/></linearGradient><clipPath id="clip-path-4"><polygon class="cls-1" points="39.24 317.27 39.26 317.28 264.95 317.28 264.95 317.27 224.69 277.01 80.05 277.01 80.05 132.37 39.24 91.62 39.24 317.27"/></clipPath><linearGradient id="linear-gradient-2" x1="-5" y1="5.82" x2="2.77" y2="5.82" gradientTransform="translate(209.35 -47.76) scale(43.37)" href="#linear-gradient"/></defs><g id="Vector_Smart_Object" data-name="Vector Smart Object"><g class="cls-2"><polygon class="cls-3" points="409.59 137.33 420.79 137.33 420.79 247.35 476.72 247.35 476.72 257.52 409.59 257.52 409.59 137.33"/><g class="cls-4"><path class="cls-3" d="M486.58,197.49a67.39,67.39,0,0,1,4.58-25.28,59.55,59.55,0,0,1,12.72-19.9,57.77,57.77,0,0,1,19.57-13.17,69.46,69.46,0,0,1,50.36,0,58.36,58.36,0,0,1,19.62,13.17,59.77,59.77,0,0,1,12.67,19.9,71.91,71.91,0,0,1,0,50.64,59.38,59.38,0,0,1-12.67,20,56.94,56.94,0,0,1-19.62,13.09,70.71,70.71,0,0,1-50.36,0,56.51,56.51,0,0,1-19.57-13.09,59,59,0,0,1-12.72-20,68.07,68.07,0,0,1-4.58-25.36m11.19,0a59.32,59.32,0,0,0,3.58,20.85,48.16,48.16,0,0,0,10.18,16.78,46.43,46.43,0,0,0,16,11.19,56.75,56.75,0,0,0,42.22,0,47.07,47.07,0,0,0,16-11.19A49.56,49.56,0,0,0,596,218.34a63.27,63.27,0,0,0,0-41.69,49.41,49.41,0,0,0-10.17-16.79,46.66,46.66,0,0,0-16-11.19,56.75,56.75,0,0,0-42.22,0,46.29,46.29,0,0,0-16,11.19,47.76,47.76,0,0,0-10.18,16.79,59.23,59.23,0,0,0-3.58,20.84"/><polygon class="cls-3" points="662.4 147.63 621.38 147.63 621.38 137.33 714.64 137.33 714.64 147.5 673.6 147.5 673.6 257.52 662.4 257.52 662.4 147.63"/><path class="cls-3" d="M818.41,211.56a75.44,75.44,0,0,1-2.2,18.46,41.53,41.53,0,0,1-7.36,15.64,37.35,37.35,0,0,1-13.58,10.67,54.14,54.14,0,0,1-41,0,37,37,0,0,1-13.6-10.83,42.29,42.29,0,0,1-7.38-15.63,77.19,77.19,0,0,1-2.18-18.48V137.33h11.16v71.35a88.61,88.61,0,0,0,1.18,13.71A43,43,0,0,0,748,235.81a28.39,28.39,0,0,0,9.87,10.35,36.94,36.94,0,0,0,33.72,0,29.33,29.33,0,0,0,9.85-10.35A41.79,41.79,0,0,0,806,222.22a80.45,80.45,0,0,0,1.18-13.7V137.33h11.2Z"/><path class="cls-3" d="M852.31,235.28a28.57,28.57,0,0,0,11.46,11.37,33.79,33.79,0,0,0,16,3.73,31.55,31.55,0,0,0,10.5-1.69,25.94,25.94,0,0,0,8.45-4.67,21.66,21.66,0,0,0,8.2-17.19,18.63,18.63,0,0,0-2.62-10.35,21.22,21.22,0,0,0-7.06-6.69,50.1,50.1,0,0,0-9.88-4.51c-3.69-1.23-7.48-2.5-11.37-3.75s-7.67-2.64-11.36-4.08a38.49,38.49,0,0,1-9.94-6.2,27.81,27.81,0,0,1-7-9.57,34.07,34.07,0,0,1-2.62-14.27,31.21,31.21,0,0,1,3.11-14.16,30.83,30.83,0,0,1,8.5-10.34A38.68,38.68,0,0,1,869,136.63a50.56,50.56,0,0,1,14.61-2.09A46.67,46.67,0,0,1,901.84,138a34.28,34.28,0,0,1,14.23,11.61l-9.63,7A26.61,26.61,0,0,0,883,144.76a37,37,0,0,0-10.34,1.43,26,26,0,0,0-8.54,4.1A20.66,20.66,0,0,0,856,167.34a19.28,19.28,0,0,0,4.6,13.81,31.66,31.66,0,0,0,11.45,7.64A116,116,0,0,0,887,193.7a74.75,74.75,0,0,1,14.9,5.71,31.89,31.89,0,0,1,11.44,9.89,29.48,29.48,0,0,1,4.6,17.58,32.37,32.37,0,0,1-3.08,14.39,31.08,31.08,0,0,1-8.21,10.58,34.84,34.84,0,0,1-12,6.53,46.4,46.4,0,0,1-14.07,2.18,56.16,56.16,0,0,1-21.88-4.11,40,40,0,0,1-17.15-14Z"/><polygon class="cls-3" points="940.33 137.33 1017.76 137.33 1017.76 156.64 961.71 156.64 961.71 188.22 1014.6 188.22 1014.6 207.53 961.71 207.53 961.71 257.52 940.33 257.52 940.33 137.33"/><polygon class="cls-3" points="1037.66 137.33 1059.04 137.33 1059.04 238.19 1110.09 238.19 1110.09 257.52 1037.66 257.52 1037.66 137.33"/><path class="cls-3" d="M1174.68,137.33h18.51l51.69,120.07h-24.62l-11.19-27.5h-51.79l-10.88,27.5h-23.93Zm27.12,74.27-18.46-48.83L1164.5,211.6Z"/><path class="cls-3" d="M1258.27,137.33H1300a85.26,85.26,0,0,1,16.71,1.61,42.77,42.77,0,0,1,14.31,5.53A28.78,28.78,0,0,1,1341,155a33.54,33.54,0,0,1,3.73,16.78,33.46,33.46,0,0,1-7.21,21.87A30.87,30.87,0,0,1,1317,204.29l31.89,53.11h-25.85l-27.83-50.88h-15.58V257.4h-21.38Zm38,50.88a68.2,68.2,0,0,0,9.16-.41,27.84,27.84,0,0,0,8.2-2.06,14.33,14.33,0,0,0,6.2-4.91,15.9,15.9,0,0,0,2.38-9.23,14.84,14.84,0,0,0-2.22-8.51,14.24,14.24,0,0,0-5.79-4.83,26.18,26.18,0,0,0-7.88-2.09,66.15,66.15,0,0,0-8.2-.53H1279.6v32.57Z"/><polygon class="cls-3" points="1365.12 137.33 1444.51 137.33 1444.51 156.64 1386.45 156.64 1386.45 186.15 1441.6 186.15 1441.6 205.49 1386.45 205.49 1386.45 238.07 1447.68 238.07 1447.68 257.4 1365.12 257.4 1365.12 137.33"/></g><g class="cls-5"><rect class="cls-6" x="5.61" y="27.83" width="323.48" height="323.48" transform="translate(-85.01 173.53) rotate(-44.93)"/></g><g class="cls-7"><rect class="cls-8" x="-7.49" y="44.87" width="319.16" height="319.16" transform="translate(-99.97 167.12) rotate(-44.93)"/></g><g class="cls-4"><polygon class="cls-9" points="211.74 148.57 129.11 148.57 211.74 231.19 211.74 148.57"/></g></g></g></svg>