<svg viewBox="0 0 225 42" xmlns="http://www.w3.org/2000/svg"><path d="m98.55 40.313-1.02.895h1.02zm0-1.344v-1.084l-3.545 3.32h1.128zm0-3.513-5.819 5.694v.055h.877l4.942-4.66zm0-1.34v-1.084l-5.819 5.694v1.084zm0-2.43v-1.084l-5.819 5.694v1.084zm0-2.427v-1.084l-5.819 5.694v1.084zm0-2.427v-1.089l-5.819 5.694v1.084zm0-2.43V23.32l-5.819 5.694v1.084l5.819-5.694zm0-2.426v-1.084l-5.819 5.696v1.084zm0-2.427v-1.084l-5.819 5.694v1.084zm0-2.427v-1.084l-5.819 5.689v1.084l5.819-5.69zm0-2.427v-1.091l-5.819 5.693v1.084zm0-2.43v-1.083l-5.819 5.683v1.084zm-.369-2.034h-1.13l-4.322 4.217v1.085zm-2.525 0H94.53l-1.798 1.79v1.087zm-2.925.443.4-.446h-.4zm5.796.666v5.76c1.279-1.371 3.314-2.425 5.381-2.425 3.461 0 5.693 2.759 5.693 5.827 0 3.33-2.504 5.782-5.832 5.782-2.009 0-4.029-1.11-5.243-2.485v5.873c1.753 1.272 3.64 1.868 5.837 1.868 3.281 0 6.423-1.4 8.383-3.591 1.729-1.927 2.778-4.555 2.778-7.447 0-6.265-4.827-11.083-10.847-11.083-2.354 0-4.466.704-6.15 1.921M8.885 17.575c-1.136-.425-1.913-.888-1.913-1.633 0-.837.804-1.393 1.913-1.607V9.436q.317-.019.638-.02c-4.372 0-8.471 2.54-8.471 6.614 0 4.66 4.986 5.614 8.152 6.768l-.32-.11zm.04 9.152c-2.233 0-4.556-.79-6.06-2.103L0 28.691c2.595 1.838 5.832 2.847 8.885 2.847v-4.819zm204.098-4.117-6.468-12.751h-6.514l9.884 19.103zm-179.859 0L26.696 9.859h-6.514l9.884 19.103zm158.253-2.11v10.6h5.921V20.5zm-15.943 0v10.6h5.92V20.5zM64.732 31.1h5.92V20.5h-5.92zm15.488 0h5.921V20.5h-5.92v10.6zm-30.976 0h5.92V20.5h-5.92zm103.641-10.606c.026-3.173 2.386-5.769 5.829-5.769s5.8 2.598 5.829 5.77h5.921c-.029-6.104-5.076-11.029-11.75-11.029-6.672 0-11.721 4.922-11.752 11.028zM126.463 0h-5.921v31.1h5.921zm83.786 41.505-.515.495h.283zm1.167-2.458.942-1.996-5.149 4.947h1.128l3.079-2.95zm2.106-4.454.942-1.997-9.779 9.402h1.127zm2.109-4.446.942-1.99-11.349 10.913-.953 1.997zm2.106-4.454.942-1.99-11.323 10.89-.953 1.997zm2.106-4.454.942-1.99-11.3 10.865-.952 1.997zm2.109-4.454.942-1.99-11.24 10.807-.973 2.022zm2.106-4.454.942-1.99-11.226 10.795-.754 1.627-.162.332zm.05-2.505h-1.128l-7.184 6.929-.903 1.946zm-2.525 0h-1.127l-2.64 2.553-.903 1.946zm-2.653.15.126-.12h-.071zM30.39 41.506l-.517.495h.282zm1.165-2.458.942-1.996L27.345 42h1.128l3.082-2.953zm2.109-4.454.941-1.997-9.78 9.402h1.128l7.71-7.405zm2.106-4.446.942-1.99-11.35 10.913-.952 1.997zm2.108-4.454.942-1.99-11.326 10.89-.952 1.997L37.88 25.693zm2.11-4.454.941-1.99-11.3 10.865-.952 1.997 11.31-10.872zm2.105-4.454.947-1.99L31.8 25.6l-.972 2.022 11.265-10.837zm2.112-4.454.942-1.99L33.92 21.137l-.753 1.627-.163.332zm.047-2.505h-1.128l-7.19 6.929-.902 1.946zm-2.522 0h-1.128l-2.64 2.553-.902 1.946zm-2.656.15.126-.12h-.07zm130.027 15.772-4.574 4.399a11.1 11.1 0 0 0 4.574-4.399m.936-2.24q.197-.68.304-1.379l-9.623 9.255a13 13 0 0 0 1.449-.309l7.87-7.568zm.427-3.091h-.953L158.049 31.48c.22.01.44.038.662.038h.461l11.286-10.89c0-.058.003-.01.006-.212zm-2.347 0h-1.128l-3.404 3.314a5.55 5.55 0 0 1-1.737 1.69l-6.009 5.79c.311.07.625.093.947.14zm-3.577 0q.001.556-.099 1.104l1.146-1.105h-1.047zm-4.9 5.8a7 7 0 0 1-.934.064q-.128.002-.256-.007l-4.521 4.348q.401.163.819.297l4.892-4.703zm-2.415-.104a6 6 0 0 1-.85-.27l-4.11 3.952c.23.14.471.274.711.4zm-1.758-.737a5.5 5.5 0 0 1-.638-.473l-4.011 3.858q.301.255.623.488zm-1.313-1.164a5 5 0 0 1-.453-.65l-4.131 3.972c.17.199.345.387.534.57zm-.892-1.57a5.6 5.6 0 0 1-.246-.847l-4.485 4.31c.139.222.283.443.44.667zm-.382-2.102v-.123h-1.039l-4.129 4.008q.155.39.335.762zm-2.439-.123h-1.127l-2.156 2.115c.057.299.128.573.212.862zm-3.485 0c0 .4.016.593.04.887l.923-.887zm-60.668-.446-.694.443h.694zm-.189-1.34c-.023-.34-.057-.69-.105-1.006l-2.917 2.791h1.128zm-.324-2.118a11 11 0 0 0-.246-.867l-4.982 4.77h1.128zm-.639-1.775a8 8 0 0 0-.382-.72l-4.6 4.424q.058.463.061 1.026zm-.928-1.534a6 6 0 0 0-.505-.596L79.57 16.58q.217.359.346.755l4.29-4.132zm-1.803-1.776-4.071 3.913q.341.21.63.48l4.053-3.895c-.199-.164-.4-.337-.612-.498m-1.554-.93-4.385 4.215q.472.056.924.2l4.188-4.028a9 9 0 0 0-.727-.387m-10.198 9.808-.205.196h.205zm8.393-10.493-5.555 5.332a6.2 6.2 0 0 1 1.565-.417l4.827-4.643a10 10 0 0 0-.845-.272zm-8.422 9.137c-.021-.35-.052-.704-.09-1.02l-2.608 2.484h1.128zm7.28-9.43a11 11 0 0 0-1.006-.137L65.404 20.417h1.128L77.905 9.518zM64.885 19.8 75.579 9.441q-.675.042-1.34.166l-9.447 9.147c.021.27.09.556.09.875v.171h.002zm7.32-9.614c-1.01.405-1.954.945-2.802 1.61l-5.193 4.991q.193.383.303.793zM67.11 11.57l-4.063 3.909q.324.225.591.508l4.063-3.893a8 8 0 0 0-.59-.524zm-.798-.573c-.23-.146-.46-.284-.698-.412l-4.343 4.172q.448.08.873.244zm-2.464-1.142-5.296 5.093a6 6 0 0 1 1.4-.262l4.725-4.542q-.409-.161-.83-.289zm-8.524 9.431v-1.084l-2.538 2.213h1.128zm7.407-9.745a11 11 0 0 0-.995-.151L50.251 20.416h1.128L62.73 9.542zm-13.435.875.531-.594h-.531zm11.096-.986a10 10 0 0 0-1.27.154l-9.82 9.456v1.084L60.391 9.43zm-3.378.81c-.727.332-1.274.772-2.106 1.323v-.423l-5.612 5.475V17.7zm-2.138-.415H53.75l-4.453 4.364v1.083zm-2.524 0h-1.128l-1.928 1.936v1.087zm145.114 10.46c0-.11-.07-.254-.07-.362l-.628.5h.701v-.138zm-.196-1.65a16 16 0 0 0-.11-.998l-2.914 2.778h1.127zm-.327-2.115a10 10 0 0 0-.243-.87l-4.984 4.77h1.127zm-.633-1.776a8 8 0 0 0-.385-.714l-4.604 4.429c.047.332.075.669.083 1.003zm-.942-1.521a10 10 0 0 0-.314-.383q-.095-.106-.194-.21l-4.154 3.993q.218.355.353.744zm-1.81-1.776-4.092 3.934q.337.206.622.477v.005l4.074-3.918a6 6 0 0 0-.597-.5zm-.819-.556a9 9 0 0 0-.72-.394l-4.408 4.237q.463.065.908.209zm-11.277 8.486v-1.084l-2.362 2.122h1.13zm8.755-9.575-5.372 5.176a6.5 6.5 0 0 1 1.421-.281l4.801-4.616a10 10 0 0 0-.845-.276h-.005zm-1.136-.291c-.332-.053-.67-.111-1.012-.131l-11.494 11.035h1.128zm-2.423-.066q-.665.044-1.318.176l-9.9 9.512v1.084zm-3.356.845a9.4 9.4 0 0 0-2.041 1.273v-.332l-5.819 5.475v1.084zm-2.044-.402v-.063h-1.19l-4.628 4.451v1.084zm-2.584-.063h-1.128l-2.104 2.024v1.087zm-3.232.682.709-.682h-.709zm-33.048 20.147V29.57l-1.602 1.449h1.133zm0-2.43v-1.083l-4.126 3.875h1.127l2.999-2.791zm0-3.51-5.814 5.689v.61h.298l5.521-5.215zm0-1.343v-1.084l-5.819 5.694v1.084zm0-2.43v-.654c0-.146.049-.284.047-.425l-5.866 5.687v1.076zm-.019-2.359c-.029-.34-.042-.666-.089-.976l-5.711 5.518v1.084zm-.337-2.107c-.073-.295-.131-.576-.23-.843l-5.238 5.06v1.084zm-.694-1.806a9 9 0 0 0-.389-.71l-4.581 4.404q.076.497.094.999zm-.952-1.51q-.13-.163-.269-.321a9 9 0 0 0-.246-.27l-4.144 3.987q.22.348.366.734zm-1.214-1.264c-.199-.171-.4-.332-.612-.496l-4.097 3.941q.345.205.636.473zm-1.439-1.041a10 10 0 0 0-.724-.388l-4.438 4.258q.472.057.924.196zm-1.692-.8a10 10 0 0 0-.848-.272l-5.46 5.252c.473-.162.965-.27 1.462-.322zm-1.918-.51a10 10 0 0 0-.981-.111l-6.544 6.325v1.086zm-2.436-.089a9.5 9.5 0 0 0-1.3.196l-3.789 3.68v1.084zm-5.089 2.538 1.667-1.605c-.594.282-1.253.619-1.667.999zM17.262 27.09a5.3 5.3 0 0 0 .372-1.443l-5.748 5.53q.915-.226 1.768-.616l3.608-3.47zm.377-2.791q-.001-.045-.01-.09a5 5 0 0 0-.063-.428l-.024-.139a5 5 0 0 0-.063-.276l-8.5 8.168c.403 0 .809-.022 1.193-.065zm-.479-1.93c-.036-.075-.097-.153-.136-.226-.013-.025-.04-.05-.052-.075-.079-.136-.115-.27-.207-.397l-7.786 7.53v1.086l8.181-7.917zm-5.53 1.997c0 .008 0 .016.01.023q.045.105.07.214l.016.063q.027.127.026.256 0 .096-.013.192l4.348-4.18a6 6 0 0 0-.452-.423l-.066-.053-.062-.047-3.964 3.807c.031.045.06.098.086.148zm-1.304 2.15a4.2 4.2 0 0 1-1.313.202l-.034.058v1.084l1.348-1.343zm3.982-6.898-.052-.027c-.091-.05-.186-.098-.277-.146l-3.864 3.717.034.015q.114.054.222.11l.1.05q.142.076.271.152l.066.043q.015.008.029.02l3.856-3.707a10 10 0 0 0-.385-.227m-2.022-.92-3.302 3.216v.765c0 .028.115.058.197.085l3.908-3.757q-.405-.162-.808-.31h.005zm1.099-3.529q.364.198.693.418l.578-.556 2.086-3.09zm-2.13 3.174c-.288-.095-.547-.183-.821-.271l-1.452 1.42v1.085zm4.979-7.26a10 10 0 0 0-.743-.37l-3.893 3.742q.43.114.842.277l3.794-3.65zM9.416 17.73a4 4 0 0 0-.437-.155v.576zm4.244-7.685L9.254 14.28c.052 0 .104-.013.157-.018h.008q.272-.025.557-.025.219.001.434.02l4.092-3.936q-.407-.148-.842-.276m-1.057-.28a14 14 0 0 0-.924-.175l-2.7 2.623v1.086zm-3.624 1.11V9.783l.338-.36h.23c.277 0 .578.013.86.03L8.98 10.876z"/></svg>